<?xml version="1.0" standalone="no"?>
<!DOCTYPE svg PUBLIC "-//W3C//DTD SVG 20010904//EN"
 "http://www.w3.org/TR/2001/REC-SVG-20010904/DTD/svg10.dtd">
<svg version="1.0" xmlns="http://www.w3.org/2000/svg"
 width="638.000000pt" height="358.000000pt" viewBox="0 0 638.000000 358.000000"
 preserveAspectRatio="xMidYMid meet">
<metadata>
Created by potrace 1.11, written by Peter Selinger 2001-2013
</metadata>
<g transform="translate(0.000000,358.000000) scale(0.100000,-0.100000)"
fill="#000000" stroke="none">
<path d="M0 1790 l0 -1790 3190 0 3190 0 0 1790 0 1790 -3190 0 -3190 0 0
-1790z m1466 1498 c26 -46 102 -175 168 -288 65 -113 175 -302 244 -420 68
-118 127 -218 131 -222 3 -4 29 32 57 80 144 245 218 372 372 637 l168 290
342 3 c203 1 342 -1 342 -7 0 -5 -95 -175 -212 -378 -116 -202 -239 -417 -273
-478 -140 -246 -396 -692 -414 -720 -10 -16 -28 -49 -40 -72 -21 -41 -21 -54
-21 -588 l0 -545 -315 0 -315 0 0 548 0 547 -50 83 c-28 46 -50 85 -50 86 0 2
-50 90 -111 197 -62 107 -137 239 -168 294 -67 117 -162 283 -236 410 -63 108
-327 571 -344 603 l-12 22 345 0 344 0 48 -82z m3257 -533 c203 -33 353 -91
497 -193 79 -56 213 -189 259 -257 49 -72 126 -222 145 -280 81 -256 74 -555
-21 -794 -68 -171 -201 -341 -364 -466 -80 -62 -259 -151 -352 -175 -234 -59
-517 -55 -737 12 -78 23 -230 103 -307 159 -81 60 -202 186 -255 265 -141 212
-195 410 -185 681 8 223 58 382 174 558 69 105 119 161 217 243 176 147 298
200 581 251 80 14 247 12 348 -4z"/>
<path d="M4391 2224 c-168 -45 -314 -204 -356 -389 -21 -89 -21 -280 0 -360
51 -198 195 -347 376 -390 122 -28 264 -13 368 39 62 32 150 113 190 174 16
26 43 79 58 117 26 67 27 78 27 240 0 161 -1 174 -26 237 -41 102 -73 151
-144 217 -74 69 -115 93 -201 115 -75 20 -219 20 -292 0z"/>
</g>
</svg>
