<?xml version="1.0" standalone="no"?>
<!DOCTYPE svg PUBLIC "-//W3C//DTD SVG 20010904//EN"
 "http://www.w3.org/TR/2001/REC-SVG-20010904/DTD/svg10.dtd">
<svg version="1.0" xmlns="http://www.w3.org/2000/svg"
 width="630.000000pt" height="630.000000pt" viewBox="0 0 630.000000 630.000000"
 preserveAspectRatio="xMidYMid meet">
<metadata>
Created by potrace 1.11, written by Peter Selinger 2001-2013
</metadata>
<g transform="translate(0.000000,630.000000) scale(0.100000,-0.100000)"
fill="#000000" stroke="none">
<path d="M0 3150 l0 -3150 3150 0 3150 0 0 3150 0 3150 -3150 0 -3150 0 0
-3150z m1159 1943 c40 -72 137 -239 184 -318 20 -33 59 -100 87 -150 28 -49
68 -119 90 -155 21 -36 54 -92 72 -125 89 -158 141 -245 147 -245 3 0 25 35
49 78 23 42 61 109 84 147 22 39 66 113 96 165 30 52 69 120 87 150 18 30 58
100 90 155 32 55 73 125 91 155 18 30 51 88 73 128 l42 72 349 0 c193 0 350
-3 350 -8 0 -4 -21 -43 -46 -87 -25 -44 -66 -116 -91 -160 -54 -94 -134 -234
-220 -383 -34 -59 -87 -152 -118 -207 -31 -55 -85 -149 -120 -210 -35 -60 -89
-155 -120 -210 -31 -55 -85 -149 -120 -210 -35 -60 -84 -147 -109 -192 l-46
-81 0 -561 0 -561 -325 0 -325 0 0 568 0 567 -51 90 c-29 50 -79 137 -112 195
-33 58 -85 150 -117 205 -31 55 -75 132 -98 172 -48 83 -64 111 -142 248 -31
55 -74 129 -95 165 -21 36 -48 83 -60 105 -13 22 -41 72 -63 110 -22 39 -62
108 -88 155 -26 47 -55 96 -64 110 -9 14 -36 60 -59 103 l-42 77 354 0 354 0
32 -57z m3519 -607 c67 -20 132 -42 145 -50 12 -8 32 -17 44 -21 13 -3 46 -21
75 -38 270 -164 460 -415 533 -707 36 -146 36 -424 0 -569 -50 -199 -139 -357
-291 -513 -96 -100 -233 -198 -329 -236 -22 -8 -49 -21 -60 -28 -11 -7 -78
-27 -150 -45 -123 -31 -140 -33 -310 -33 -170 0 -187 2 -307 32 -70 18 -162
49 -205 69 -252 116 -483 351 -573 584 -11 30 -27 68 -35 84 -64 143 -62 597
4 750 10 22 24 56 31 75 51 133 175 300 306 412 140 120 271 190 433 234 141
38 187 43 386 39 171 -3 186 -5 303 -39z m-1106 -3763 c19 -17 24 -59 8 -83
-5 -9 -5 -19 1 -26 5 -7 8 -69 7 -145 l-3 -134 -47 -3 -48 -3 0 145 c0 96 4
146 11 146 5 0 3 10 -5 22 -21 30 -20 54 4 78 24 24 47 25 72 3z m-1224 -48
l3 -51 60 1 c57 0 62 -2 90 -35 28 -35 29 -37 26 -145 l-2 -110 -45 0 -45 0
-5 90 c-5 99 -11 115 -41 115 -30 0 -37 -27 -38 -138 l-1 -73 -47 3 -48 3 -3
185 c-1 101 0 190 3 198 3 9 19 12 47 10 l43 -3 3 -50z m2207 -145 l0 -195
-47 -3 -48 -3 0 194 c0 106 3 197 7 201 4 4 25 6 48 4 l40 -3 0 -195z m-3325
-16 l0 -185 -47 3 -48 3 -3 183 -2 182 50 0 50 0 0 -186z m180 148 c0 -35 2
-38 28 -37 24 0 27 -4 30 -37 3 -36 2 -38 -27 -38 l-31 0 0 -63 c0 -73 6 -84
32 -60 10 9 19 14 21 12 1 -2 10 -19 20 -38 17 -32 17 -34 0 -48 -53 -42 -108
-39 -148 9 -22 26 -25 39 -25 109 0 72 -2 79 -20 79 -16 0 -20 7 -20 34 0 26
5 36 20 41 15 5 20 15 20 41 l0 34 50 0 50 0 0 -38z m740 3 c0 -30 3 -35 24
-35 30 0 49 -22 44 -52 -2 -18 -10 -24 -35 -26 -33 -3 -33 -4 -33 -57 0 -76 6
-88 34 -70 22 14 24 13 42 -20 18 -35 18 -35 -4 -57 -17 -17 -34 -23 -66 -23
-37 0 -49 6 -75 32 -29 31 -31 37 -31 112 0 70 -2 79 -20 84 -13 3 -20 14 -20
30 0 25 22 52 33 40 4 -3 7 12 7 35 l0 42 50 0 50 0 0 -35z m840 0 c0 -30 3
-35 24 -35 30 0 49 -22 44 -52 -2 -18 -10 -24 -35 -26 -33 -3 -33 -4 -33 -57
0 -76 6 -88 34 -70 22 14 24 13 42 -20 18 -35 18 -35 -4 -57 -17 -17 -34 -23
-66 -23 -37 0 -49 6 -75 32 -29 31 -31 37 -31 112 0 70 -2 79 -20 84 -13 3
-20 14 -20 30 0 25 22 52 33 40 4 -3 7 12 7 35 l0 42 50 0 50 0 0 -35z m-1175
-45 c46 -18 54 -30 36 -63 -16 -29 -23 -30 -90 -11 -45 13 -17 -19 32 -35 82
-28 103 -94 47 -149 -49 -49 -117 -53 -187 -10 -38 23 -40 33 -13 68 18 24 20
24 47 8 35 -20 67 -26 72 -13 1 6 -14 17 -35 25 -63 24 -84 48 -84 95 0 41 22
74 60 88 25 9 87 8 115 -3z m986 -28 c30 -32 30 -32 27 -144 l-3 -113 -55 -2
c-30 -1 -67 -5 -81 -8 -33 -8 -95 19 -111 48 -6 12 -11 38 -11 60 0 56 27 78
104 86 52 5 60 8 47 19 -13 10 -24 10 -63 -3 -44 -15 -48 -15 -61 2 -39 50 22
97 119 90 50 -3 63 -8 88 -35z m623 14 c22 -14 24 -19 15 -43 -14 -38 -28 -44
-60 -27 -34 17 -62 18 -57 2 2 -6 23 -17 47 -24 62 -18 81 -39 81 -89 0 -34
-6 -47 -32 -71 -29 -25 -41 -29 -88 -28 -41 1 -66 8 -93 25 -20 13 -37 27 -37
31 0 4 11 19 24 34 22 27 24 27 48 12 24 -16 48 -22 78 -19 21 2 1 17 -42 30
-51 17 -88 54 -88 89 0 33 32 79 64 93 31 13 111 5 140 -15z m301 14 c4 -7 12
-7 25 0 30 16 65 12 94 -11 26 -20 28 -20 46 -4 11 10 41 20 68 23 41 4 52 0
80 -23 41 -35 54 -81 50 -185 l-3 -85 -50 0 -50 0 -5 100 c-5 92 -7 100 -26
103 -33 5 -43 -19 -46 -114 l-3 -89 -50 0 -50 0 -5 100 c-5 94 -6 100 -27 103
-32 5 -43 -30 -43 -129 l0 -80 -47 3 -48 3 -3 139 c-2 105 1 141 10 148 18 11
76 10 83 -2z m490 1 c3 -6 17 -6 36 1 123 43 212 -94 154 -234 -4 -10 -10 -18
-14 -18 -4 0 -17 -9 -29 -21 -31 -28 -85 -36 -116 -16 l-23 16 5 -45 c3 -27 0
-49 -8 -59 -14 -17 -90 -21 -90 -5 -3 115 1 373 5 380 8 13 72 13 80 1z m582
-2 c43 -16 72 -48 84 -92 16 -58 6 -85 -33 -89 l-32 -3 26 -30 26 -30 -35 -23
c-51 -35 -102 -39 -157 -13 -59 29 -86 73 -86 141 0 42 6 60 26 88 43 55 115
76 181 51z"/>
<path d="M4201 3979 c-138 -27 -283 -152 -350 -303 -40 -88 -53 -158 -53 -291
0 -139 14 -207 59 -303 102 -216 318 -328 563 -294 215 31 389 201 440 432 14
66 12 276 -4 340 -51 210 -200 373 -380 415 -66 16 -205 18 -275 4z"/>
</g>
</svg>
